<svg id="wave" style="transform:rotate(0deg); transition: 0.3s" viewBox="0 0 1440 490" version="1.1" xmlns="http://www.w3.org/2000/svg"><defs><linearGradient id="sw-gradient-0" x1="0" x2="0" y1="1" y2="0"><stop stop-color="rgba(94.075, 243, 62, 1)" offset="0%"></stop><stop stop-color="rgba(120.296, 255, 11, 1)" offset="100%"></stop></linearGradient></defs><path style="transform:translate(0, 0px); opacity:1" fill="url(#sw-gradient-0)" d="M0,98L30,138.8C60,180,120,261,180,285.8C240,310,300,278,360,236.8C420,196,480,147,540,130.7C600,114,660,131,720,171.5C780,212,840,278,900,277.7C960,278,1020,212,1080,171.5C1140,131,1200,114,1260,98C1320,82,1380,65,1440,81.7C1500,98,1560,147,1620,204.2C1680,261,1740,327,1800,334.8C1860,343,1920,294,1980,253.2C2040,212,2100,180,2160,171.5C2220,163,2280,180,2340,220.5C2400,261,2460,327,2520,343C2580,359,2640,327,2700,318.5C2760,310,2820,327,2880,302.2C2940,278,3000,212,3060,187.8C3120,163,3180,180,3240,228.7C3300,278,3360,359,3420,400.2C3480,441,3540,441,3600,408.3C3660,376,3720,310,3780,310.3C3840,310,3900,376,3960,351.2C4020,327,4080,212,4140,138.8C4200,65,4260,33,4290,16.3L4320,0L4320,490L4290,490C4260,490,4200,490,4140,490C4080,490,4020,490,3960,490C3900,490,3840,490,3780,490C3720,490,3660,490,3600,490C3540,490,3480,490,3420,490C3360,490,3300,490,3240,490C3180,490,3120,490,3060,490C3000,490,2940,490,2880,490C2820,490,2760,490,2700,490C2640,490,2580,490,2520,490C2460,490,2400,490,2340,490C2280,490,2220,490,2160,490C2100,490,2040,490,1980,490C1920,490,1860,490,1800,490C1740,490,1680,490,1620,490C1560,490,1500,490,1440,490C1380,490,1320,490,1260,490C1200,490,1140,490,1080,490C1020,490,960,490,900,490C840,490,780,490,720,490C660,490,600,490,540,490C480,490,420,490,360,490C300,490,240,490,180,490C120,490,60,490,30,490L0,490Z"></path></svg>