<?xml version="1.0" encoding="utf-8"?>
<!-- Generator: Adobe Illustrator 27.5.0, SVG Export Plug-In . SVG Version: 6.00 Build 0)  -->
<svg version="1.1" xmlns="http://www.w3.org/2000/svg" xmlns:xlink="http://www.w3.org/1999/xlink" x="0px" y="0px"
	 viewBox="0 0 500 500" style="enable-background:new 0 0 500 500;" xml:space="preserve">
<g id="Background_Simple">
	<g>
		<path style="fill:#92E3A9;" d="M265.723,72.171c-10.149,3.79-20.424,7.123-30.808,9.975
			c-40.958,11.251-145.826,44.257-183.629,96.096C3.874,243.258,100.929,446.68,126.88,464.756
			c25.951,18.076,349.554-102.824,353.755-144.008c4.201-41.184-96.187-238.449-123.428-255.814
			C337.43,52.327,288.479,63.672,265.723,72.171z"/>
		<path style="opacity:0.7;fill:#FFFFFF;" d="M265.723,72.171c-10.149,3.79-20.424,7.123-30.808,9.975
			c-40.958,11.251-145.826,44.257-183.629,96.096C3.874,243.258,100.929,446.68,126.88,464.756
			c25.951,18.076,349.554-102.824,353.755-144.008c4.201-41.184-96.187-238.449-123.428-255.814
			C337.43,52.327,288.479,63.672,265.723,72.171z"/>
	</g>
</g>
<g id="Text">
	<g>
		<path style="fill:none;stroke:#263238;stroke-miterlimit:10;" d="M32.786,406.075V125.857h43.589l57.428,134.92v-134.92h51.2
			v280.217h-41.859L85.715,260.777v145.298H32.786z"/>
		<path style="fill:none;stroke:#263238;stroke-miterlimit:10;" d="M307.118,410.225c-20.99,0-37.595-3.691-49.816-11.07
			c-12.227-7.378-20.989-17.99-26.292-31.827c-5.308-13.838-7.957-30.325-7.957-49.47v-104.13c0-19.373,2.648-35.86,7.957-49.471
			c5.302-13.605,14.065-24.043,26.292-31.308c12.222-7.265,28.827-10.897,49.816-10.897c21.216,0,37.994,3.633,50.336,10.897
			c12.334,7.265,21.156,17.703,26.464,31.308c5.302,13.611,7.958,30.098,7.958,49.471v104.13c0,19.146-2.656,35.633-7.958,49.47
			c-5.308,13.838-14.13,24.449-26.464,31.827C345.112,406.534,328.334,410.225,307.118,410.225z M307.118,366.291
			c6.453,0,11.183-1.611,14.184-4.844c2.994-3.227,4.957-7.378,5.881-12.454c0.919-5.07,1.384-10.259,1.384-15.568V198.507
			c0-5.535-0.465-10.779-1.384-15.741c-0.924-4.957-2.887-9.049-5.881-12.281c-3-3.227-7.73-4.843-14.184-4.843
			c-6,0-10.497,1.616-13.492,4.843c-3,3.232-4.962,7.324-5.881,12.281c-0.924,4.962-1.384,10.206-1.384,15.741v134.919
			c0,5.309,0.4,10.498,1.211,15.568c0.806,5.075,2.649,9.227,5.535,12.454C295.988,364.68,300.659,366.291,307.118,366.291z"/>
		<path style="fill:none;stroke:#263238;stroke-miterlimit:10;" d="M424.74,406.075v-52.584h53.276v52.584H424.74z M442.037,334.809
			l-16.26-208.26h56.044l-20.411,208.26H442.037z"/>
	</g>
	<g>
		<path style="fill:none;stroke:#92E3A9;stroke-miterlimit:10;" d="M28.087,393.993V113.776h43.589l57.428,134.92v-134.92h51.2
			v280.217h-41.859L81.017,248.695v145.298H28.087z"/>
		<path style="fill:none;stroke:#92E3A9;stroke-miterlimit:10;" d="M302.42,398.144c-20.989,0-37.595-3.691-49.816-11.07
			c-12.227-7.378-20.989-17.99-26.292-31.827c-5.308-13.838-7.957-30.325-7.957-49.47v-104.13c0-19.373,2.648-35.86,7.957-49.471
			c5.302-13.605,14.065-24.043,26.292-31.308c12.222-7.265,28.827-10.897,49.816-10.897c21.216,0,37.994,3.633,50.335,10.897
			c12.334,7.265,21.156,17.703,26.464,31.308c5.303,13.611,7.958,30.098,7.958,49.471v104.13c0,19.145-2.656,35.633-7.958,49.47
			c-5.308,13.838-14.13,24.449-26.464,31.827C340.414,394.453,323.635,398.144,302.42,398.144z M302.42,354.21
			c6.453,0,11.183-1.611,14.184-4.844c2.994-3.227,4.957-7.378,5.881-12.454c0.919-5.07,1.384-10.259,1.384-15.568V186.425
			c0-5.535-0.465-10.779-1.384-15.741c-0.924-4.957-2.887-9.049-5.881-12.281c-3-3.227-7.73-4.843-14.184-4.843
			c-6,0-10.497,1.616-13.492,4.843c-3,3.232-4.962,7.324-5.881,12.281c-0.924,4.962-1.384,10.205-1.384,15.741v134.919
			c0,5.309,0.4,10.498,1.211,15.568c0.806,5.075,2.649,9.227,5.535,12.454C291.29,352.598,295.96,354.21,302.42,354.21z"/>
		<path style="fill:none;stroke:#92E3A9;stroke-miterlimit:10;" d="M420.042,393.993v-52.584h53.276v52.584H420.042z
			 M437.339,322.728l-16.26-208.26h56.044l-20.411,208.26H437.339z"/>
	</g>
</g>
<g id="Character">
	<g>
		<g>
			<path style="fill:#92E3A9;stroke:#263238;stroke-miterlimit:10;" d="M328.068,458.03l-35.002,6.364
				c-21.935,2.417-62.068,3.033-84.006,0.636l-31.82-7.001v-27.366h150.828V458.03z"/>
			<g>
				<path style="fill:#92E3A9;stroke:#263238;stroke-miterlimit:10;" d="M333.048,292.026c0.792-2.374,16.403-58.533,15.612-63.282
					s-4.749-10.289-7.519-11.872c-2.77-1.583-49.249-23.385-49.249-23.385s-17.017-4.749-30.076-6.332
					c-13.059-1.583-46.302-1.583-46.302-1.583s-45.187,11.542-48.353,17.874c-3.166,6.332-0.323,79.479-0.323,86.602
					c0,7.123,2.77,21.766,4.749,31.659c1.979,9.893,2.124,46.072,1.728,48.447c-0.288,1.73-0.133,18.149-1.678,36.362
					c-1.956,6.742-4.555,15.844-0.124,29.877c3.818,12.092,29.773,13.198,29.773,13.198s54.264,1.678,62.096,1.678
					c7.832,0,53.145-3.356,60.977-7.832s8.391-11.189,8.391-17.342s-6.783-50.108-6.154-59.858c1.119-17.342,0-41.957,0-41.957
					l1.863-13.915C330.851,300.605,332.764,292.878,333.048,292.026z"/>
				<polygon style="fill:#263238;" points="289.794,209.213 304.796,199.436 291.891,193.486 				"/>
				<path style="fill:#263238;" d="M234.496,231.822c0,0,19.621-12.814,22.023-12.814c2.403,0,9.438,1.108,9.438,1.108
					s4.577-5.513,9.382-4.312c4.805,1.201,21.3,9.13,21.3,9.13s-14.093-17.138-16.495-19.941
					c-2.402-2.803-25.227-4.805-29.632-0.801C246.109,208.197,234.496,231.822,234.496,231.822z"/>
				<path style="fill:none;stroke:#263238;stroke-miterlimit:10;" d="M213.408,294.805c0,0,32.926,62.51,57.74,85.508"/>
				<path style="fill:none;stroke:#263238;stroke-miterlimit:10;" d="M299.158,403.349c2.78,2.61,4.974,4.804,5.882,6.014"/>
				<path style="fill:none;stroke:#263238;stroke-miterlimit:10;" d="M277.2,383.944c0,0,9.867,8.387,17.948,15.712"/>
				<path style="fill:none;stroke:#263238;stroke-miterlimit:10;" d="M230.563,356.308c1.181,2.308,2.404,4.663,3.667,7.059"/>
				<path style="fill:none;stroke:#263238;stroke-miterlimit:10;" d="M206.995,304.66c0,0,7.464,19.592,21.162,46.9"/>
			</g>
		</g>
		<g>
			<path style="fill:#92E3A9;stroke:#263238;stroke-miterlimit:10;" d="M191.695,227.719c0,0-11.958-26.859-24.535-24.274
				c-12.577,2.585-15.951,22.828-17.878,27.647c-1.928,4.82-7.771,17.689-10.603,22.17c-3.914,6.193-0.049,22.347-0.049,22.347
				s5.939,10.982,1.119,20.139c-4.82,9.157-1.758,19.759,3.061,27.47c4.82,7.711,13.013,14.459,22.652,17.351
				c9.639,2.892,17.351-4.338,22.652-10.603c5.302-6.266,22.652-4.82,22.652-30.846c0-26.026-6.266-47.714-6.266-47.714"/>
			<path style="fill:none;stroke:#263238;stroke-miterlimit:10;" d="M157.026,239.573c-2.241,0.507-4.515,1.294-6.795,2.434"/>
			<path style="fill:none;stroke:#263238;stroke-miterlimit:10;" d="M157.766,235.663c0,0-8.724-5.949,0.793-7.138
				c9.518-1.19,34.898,14.673,31.329,16.259c-2.899,1.288-15.217-7.365-29.515-5.772"/>
			<path style="fill:none;stroke:#263238;stroke-miterlimit:10;" d="M147.852,286.027c0,0,10.707-12.69,24.984-13.087"/>
		</g>
		<path style="fill:#FFFFFF;stroke:#263238;stroke-miterlimit:10;" d="M224.117,173.712c0,0-8.115,2.029-8.875,3.804
			c-0.761,1.775-3.296,11.665-3.296,11.665s2.029,10.143,4.818,17.243c2.789,7.1,10.65,19.272,10.65,21.301s1.268,9.382,4.057,8.875
			c2.789-0.507,4.057-7.354,7.607-10.65c3.55-3.296,16.99-13.186,18.004-13.186c1.014,0,7.861,8.368,8.875,7.354
			c1.014-1.014,6.846-8.875,6.846-8.875s1.014-2.282,2.789-1.268s8.114,9.636,12.172,12.932c4.057,3.296,9.382,6.086,8.875,2.029
			c-0.507-4.057-6.593-14.2-6.847-15.722c-0.254-1.522,4.057-12.679,4.564-14.961c0.507-2.282-3.804-13.439-7.607-17.243
			c-3.804-3.804-8.115-5.072-8.115-5.072S248.207,170.162,224.117,173.712z"/>
		<path style="fill:#FFFFFF;stroke:#263238;stroke-miterlimit:10;" d="M222.031,157.585c0,0,1.566,27.012,3.132,30.144
			c1.566,3.132,30.927,19.966,32.885,21.532c1.957,1.566,7.83,6.264,7.83,6.264s7.047-11.353,9.004-14.485
			c1.957-3.132,8.221-10.57,9.004-13.702s-2.74-20.357-2.74-20.357L222.031,157.585z"/>
		<path style="fill:#263238;" d="M272.543,165.614l-11.921,17.194l16.576,13.176l1.021,0.395c2.424-3.273,5.167-7.036,5.667-9.04
			c0.783-3.132-2.74-20.357-2.74-20.357L272.543,165.614z"/>
		<g>
			<path style="fill:#FFFFFF;stroke:#263238;stroke-miterlimit:10;" d="M214.483,65.818c0,0-11.427,6.459-14.408,19.129
				c-2.981,12.669,6.21,38.257,6.459,39.251c0.249,0.994-5.465-0.248-5.465,7.204c0,7.453,6.956,16.147,6.956,16.147
				s2.484,5.962,6.956,7.453c4.472,1.491,5.217-0.745,5.217-0.745s2.981,13.415,15.651,22.855
				c12.669,9.44,23.103,12.421,35.276,6.707c12.173-5.714,18.135-28.569,19.377-38.754c1.242-10.185-3.229-38.754-5.217-45.958
				c-1.987-7.204-2.733-22.358-13.663-31.55C260.69,58.365,234.606,50.416,214.483,65.818z"/>
			<path style="fill:#263238;" d="M252.389,111.083c0,0,0,5.603-1.019,5.857c-1.019,0.255-11.46-3.056-15.534-2.801
				c-4.075,0.255-6.876,1.528-6.876,1.528s3.565-6.112,7.131-6.367c3.565-0.255,7.895-0.764,10.696,0.255
				C249.588,110.574,253.153,108.027,252.389,111.083z"/>
			<path style="fill:#263238;" d="M264.613,106.245c0,0,0.509,2.037,2.292,2.801c1.783,0.764,5.603-4.839,8.659-4.839
				c3.056,0,6.621,2.547,6.621,1.273s-5.348-7.131-9.677-7.131c-4.329,0-6.621,5.603-6.621,5.603S262.321,103.443,264.613,106.245z"
				/>
			<ellipse style="fill:#263238;" cx="270.234" cy="159.064" rx="2.526" ry="3.537"/>
			<path style="fill:#263238;stroke:#263238;stroke-miterlimit:10;" d="M206.534,124.197c0,0,1.987,6.211,4.472,7.204
				c2.484,0.994,3.975-0.745,3.726-6.707c-0.099-2.371,0.038-4.349,0.255-5.918c0.328-2.378,0.838-3.818,0.988-4.267
				c0.248-0.745,1.49,4.969,1.49,4.969s4.472-1.739,5.217-9.689c0.745-7.949-0.497-13.912,0-15.899
				c0.497-1.987,5.465-6.211,5.465-6.211l-0.745,5.217c0,0,8.695-1.739,15.899-2.484c7.204-0.745,16.396-4.472,16.396-4.472
				l-3.229,5.962c0,0,4.968,2.236,13.166-4.472c8.198-6.707,5.465-13.912,5.465-13.912l5.465,8.943l2.981,8.446l2.733,12.421
				c0,0,2.236-5.714,2.484-8.198c0.248-2.484,0-11.924,0-11.924s0.497,7.453,2.236,2.981c1.739-4.472,4.72-4.72,0.994-10.434
				c-3.726-5.714-12.669-12.421-13.415-12.669c-0.745-0.248,7.949,1.987,7.701-1.242c-0.248-3.229-18.632-11.676-28.072-14.657
				c-9.44-2.981-27.575-2.981-39.499,4.968c-11.924,7.95-21.613,19.625-21.613,19.625s-6.956,11.676-6.956,23.849
				c0,12.173,8.597,19.252,9.192,20.371c4.6,8.643,2.873-0.227,1.739-3.229C201.069,112.77,201.069,119.974,206.534,124.197z"/>
			<path style="fill:#263238;" d="M245.269,124.484c0.27,2.386-0.838,4.47-2.474,4.654c-1.636,0.185-3.181-1.6-3.45-3.985
				c-0.27-2.386,0.838-4.47,2.474-4.655C243.455,120.314,244.999,122.098,245.269,124.484z"/>
			<path style="fill:#263238;" d="M274.334,118.77c0.269,2.386-0.838,4.47-2.474,4.655c-1.636,0.185-3.181-1.6-3.45-3.985
				c-0.269-2.386,0.838-4.47,2.474-4.655C272.52,114.6,274.065,116.384,274.334,118.77z"/>
			<path style="fill:none;stroke:#263238;stroke-miterlimit:10;" d="M270.627,134.383c0,0,3.726,4.968,3.726,6.707
				c0,1.739-2.981,6.707-5.217,7.453c-2.236,0.745-6.956-1.739-8.695-1.987c-1.739-0.249-0.994,2.733-2.981,2.484
				c-1.987-0.248-3.975-2.484-2.484-3.726"/>
		</g>
		<path style="fill:none;stroke:#263238;stroke-miterlimit:10;" d="M222.731,258.664c0,0,4.236,16.946,19.972,33.892"/>
		<g>
			<path style="fill:#FFFFFF;stroke:#263238;stroke-miterlimit:10;" d="M206.357,245.209c0,0,11.55-12.943,13.472-20.227
				c1.922-7.284,6.157-14.687,8.074-18.941c1.917-4.253,5.341-18.525,7.188-23.234c1.848-4.709,7.81-8.413,11.905-6.005
				c4.095,2.407,5.564,13.604,3.766,20.17c-1.799,6.566-8.397,22.952-10.844,29.85c-2.447,6.898-6.157,14.687-6.277,23.096
				c-0.12,8.408,0.706,16.906,1.245,18.922c0.54,2.016,13.858,19.102,15.408,24.693c1.549,5.591-0.526,10.335-3.928,12.484
				c-3.402,2.149-13.609,8.595-17.943,12.284c-4.334,3.689-15.065,9.749-30.422,16.046c-15.357,6.297-23.339,2.849-29.281-5.57
				c-5.941-8.419-10.273-15.452-9.579-21.617c0.694-6.165,4.483-8.839,4.483-8.839s-3.84-17.595-0.943-21.531
				c2.898-3.936,8.702-7.15,9.019-8.13c0.317-0.98-0.777-6.641,3.205-9.577c3.982-2.936,9.028-3.47,9.028-3.47
				s1.254-5.551,6.409-8.433C195.498,244.296,200.281,243.569,206.357,245.209z"/>
			<path style="fill:#FFFFFF;stroke:#263238;stroke-miterlimit:10;" d="M181.445,276.032c0,0,10.953,7.657,14.766,11.273
				c3.813,3.616,7.06,9.648,8.511,11.525c1.451,1.877,4.966,5.072,7.075,11.277c2.109,6.205,9.798,16.922,14.23,16.948
				c4.432,0.025,7.379-2.054,8.087-6.59c0.709-4.536-1.633-7.676-1.633-7.676s-7.312-15.902-10.753-21.672
				c-3.441-5.77-6.184-10.014-6.184-10.014c-4.095-2.407-18.553-19.32-18.553-19.32"/>
			<path style="fill:#FFFFFF;stroke:#263238;stroke-miterlimit:10;" d="M209.264,245.932c0,0,12.533,5.786,15.544,7.192
				c3.011,1.407,6.422,3.918,7.516,9.578s3.066,29.366,3.601,34.412c0.534,5.046,2.103,9.236,0.627,11.791
				c-1.476,2.555-5.161,5.912-10.222,4.817c-5.061-1.095-7.283-12.643-7.283-12.643l-3.518-21.606l-2.683-8.449
				c0,0-5.972-0.957-9.488-4.151"/>
			<path style="fill:#FFFFFF;stroke:#263238;stroke-miterlimit:10;" d="M172.727,292.274c0,0,0.99,4.977,5.679,8.226
				c4.689,3.249,9.77,2.943,11.048,3.681c1.277,0.738,7.971,9.509,9.719,11.807s7.591,7.003,10.691,7.464
				c3.1,0.461,5.556-1.777,5.735-3.669"/>
			<path style="fill:none;stroke:#263238;stroke-miterlimit:10;" d="M178.406,300.5c0,0-3.402,2.149-7.641,1.861"/>
			<path style="fill:none;stroke:#263238;stroke-miterlimit:10;" d="M164.357,300.072c0,0-0.404,20.338,5.315,25.761"/>
			<path style="fill:#FFFFFF;stroke:#263238;stroke-miterlimit:10;" d="M240.034,301.151c0,0,0,0-4.11-4.036
				c-4.11-4.036-7.897-12.084-6.168-19.106c1.729-7.022,8.846-9.269,8.846-9.269s2.803,0.04,4.882,2.987
				c2.079,2.947,3.144,5.349,5.555,8.944c2.411,3.595,5.05,7.156,3.816,11.306c-1.234,4.15-3.254,7.72-5.166,8.943"/>
		</g>
		<g>
			<path style="fill:#92E3A9;stroke:#263238;stroke-miterlimit:10;" d="M341.141,216.872c0,0,3.357,10.629,1.119,26.293
				c-2.238,15.664-6.713,36.922-6.713,36.922s-12.307,11.748-16.223,15.104c-3.916,3.357-27.971,11.188-27.412,21.817
				c0.559,10.629,13.986,19.02,30.209,22.936c16.223,3.916,25.174,5.035,35.803-8.391c10.629-13.426,11.188-33.006,7.272-39.159
				c-3.916-6.154-2.797-22.936-2.238-29.649c0.559-6.713,1.678-15.664,0.559-20.699
				C362.399,237.011,350.651,215.753,341.141,216.872z"/>
			<path style="fill:none;stroke:#263238;stroke-miterlimit:10;" d="M355.756,283.163c2.028,1.818,3.287,3.636,3.287,3.636"/>
			<path style="fill:none;stroke:#263238;stroke-miterlimit:10;" d="M331.929,285.313c0,0,9.771-5.786,15.924-5.786
				c0.769,0,1.521,0.114,2.247,0.313"/>
			<path style="fill:none;stroke:#263238;stroke-miterlimit:10;" d="M349.27,256.661c1.32-1.04,2.719-1.853,4.178-2.308"/>
			<path style="fill:none;stroke:#263238;stroke-miterlimit:10;" d="M337.784,273.373c0,0,3.136-7.58,7.98-13.27"/>
		</g>
		<g>
			<path style="fill:#FFFFFF;stroke:#263238;stroke-miterlimit:10;" d="M272.647,298.962c0,0,2.711-8.872,2.711-16.019
				s1.479-12.322,5.422-12.076c3.943,0.246,6.654,2.464,6.654,2.464s-3.697-14.294-4.19-28.835
				c-0.493-14.541,1.232-19.716,3.204-20.455c1.972-0.739,4.682-0.247,4.682-0.247s0.739-7.393,5.422-7.393
				c4.682,0,4.929,8.133,5.915,10.597c0.986,2.464,0.986,2.464,0.986,2.464s2.218-5.422,6.408-4.19
				c4.19,1.232,4.436,2.957,4.436,9.365c0,6.408,1.972,15.033,1.972,15.033s4.929-3.943,6.654,1.972
				c1.725,5.915,2.464,21.688,3.697,25.384c1.232,3.697,6.654,25.877,9.365,35.982c2.711,10.104,0,14.541-4.683,20.455
				c-4.682,5.915-17.005,1.479-23.659-0.986c-6.654-2.465-6.654-2.465-6.654-2.465s-12.076-2.465-17.252-10.104
				c-5.175-7.64-5.422-8.872-6.654-11.09C275.85,306.602,272.647,302.165,272.647,298.962z"/>
			<path style="fill:none;stroke:#263238;stroke-miterlimit:10;" d="M287.434,273.331c0,0,4.682,3.943,3.45,10.597
				c-1.232,6.654-3.943,9.365-4.683,11.83c-0.739,2.464,0.739,5.915,0.739,5.915"/>
			<path style="fill:none;stroke:#263238;stroke-miterlimit:10;" d="M291.13,223.794c0,0,1.725,11.583,2.711,14.787
				c0.986,3.204,1.725,21.441,2.957,24.645c1.232,3.204,1.479,5.175,1.479,5.175"/>
			<path style="fill:none;stroke:#263238;stroke-miterlimit:10;" d="M303.453,229.462c0,0-1.232,6.901-0.247,12.323
				c0.986,5.422,1.232,7.64,1.232,7.64s0.986,10.597,0.986,14.541s-0.986,4.19,1.232,7.64"/>
			<path style="fill:none;stroke:#263238;stroke-miterlimit:10;" d="M316.268,249.671c0,0-2.218,2.465-2.465,9.119
				c-0.246,6.654-0.246,10.597-0.246,10.597s-0.493,9.119,3.204,14.787c3.697,5.668,6.408,3.943,6.408,3.943"/>
			<path style="fill:none;stroke:#263238;stroke-miterlimit:10;" d="M316.642,303.078c1.259,0.751,2.645,1.244,4.309,1.305"/>
			<path style="fill:none;stroke:#263238;stroke-miterlimit:10;" d="M293.595,283.928c0,0,3.697,7.147,11.09,10.104
				c4.159,1.664,6.68,4.653,9.275,6.994"/>
			<path style="fill:none;stroke:#263238;stroke-miterlimit:10;" d="M292.363,289.35c0,0,7.886,7.64,11.83,14.787"/>
		</g>
	</g>
</g>
</svg>
