<?xml version="1.0" encoding="utf-8"?>
<!-- Generator: Adobe Illustrator 21.0.0, SVG Export Plug-In . SVG Version: 6.00 Build 0)  -->
<svg version="1.1"
	 id="Layer_1" inkscape:version="0.48.3.1 r9886" sodipodi:docname="New document 3" xmlns:cc="http://creativecommons.org/ns#" xmlns:dc="http://purl.org/dc/elements/1.1/" xmlns:inkscape="http://www.inkscape.org/namespaces/inkscape" xmlns:rdf="http://www.w3.org/1999/02/22-rdf-syntax-ns#" xmlns:sodipodi="http://sodipodi.sourceforge.net/DTD/sodipodi-0.dtd" xmlns:svg="http://www.w3.org/2000/svg"
	 xmlns="http://www.w3.org/2000/svg" xmlns:xlink="http://www.w3.org/1999/xlink" x="0px" y="0px" viewBox="0 0 349.2 254.4"
	 style="enable-background:new 0 0 349.2 254.4;" xml:space="preserve">
<style type="text/css">
	.st0{fill:#8BC53E;}
	.st1{fill:#89C439;}
	.st2{fill:#88C337;}
	.st3{fill:#FEFEFE;}
	.st4{fill:#FEFEFD;}
	.st5{fill:#84C131;}
	.st6{fill:#89C43A;}
	.st7{fill:#86C334;}
	.st8{fill:#82C12E;}
	.st9{fill:#84C333;}
	.st10{fill:#87C334;}
	.st11{fill:#86C233;}
	.st12{fill:#80C02B;}
	.st13{fill:#82C12D;}
</style>
<g id="_818228064">
</g>
<g id="_818228896">
</g>
<g id="_818227648">
</g>
<g id="_818227424">
</g>
<g id="_818225888">
</g>
<g id="_818226112">
</g>
<g id="_818226176">
</g>
<g id="_818226624">
</g>
<g id="_818226912">
</g>
<g id="_818226336">
</g>
<g id="_818226368">
</g>
<g id="_818227296">
</g>
<g id="_818226720">
</g>
<g id="_818227328">
</g>
<g id="_818225568">
</g>
<path class="st0" d="M429.8,232.8c-8.7,98-50,179.3-124.9,243.1c-52,44.3-112.7,70.8-180.2,79.4c-158.4,20.3-310-66.9-370.9-214.5
	c-13.6-33-22.2-67.2-25.4-102.8c1.6-21.3,1.6-42.6,0-63.8c15.2-130.4,81.2-225.6,198.1-285.3c24.2-12.4,49.9-21.1,76.4-26.6
	c78.4-16.2,154.9-9.5,227,26.3C339.7-57,405,31.5,426.9,151.9c1.7,9.1,2,18.5,2.9,27.7C428.3,197.3,428.3,215,429.8,232.8z"/>
<path class="st1" d="M-271.5,174.3c3.7,21.3,3.7,42.6,0,63.8C-273,216.8-273,195.5-271.5,174.3z"/>
<path class="st2" d="M429.8,232.8c-3.6-17.7-3.6-35.4,0-53.1C429.8,197.3,429.8,215,429.8,232.8z"/>
<path class="st3" d="M85.9,267.1c-0.9-0.8-1.8-1.6-2.6-2.4c-2.2-9.7-2.3-19.4,0.1-29.1c57.6,0,115.3,0,172.9,0
	c2.6,2.5,1.7,5.8,1.7,8.8c0.1,33.6,0,67.2,0,100.8c0,2.6,0.5,5.3-1.4,7.6c-52.2,43.5-112.1,65.7-180.3,63.9
	c-54.5-1.4-104-19.5-142.7-57.1c-30.5-29.6-48.3-69.2-55.1-111.5c-14-86.2,10.9-160.9,80.3-214.4C20.5-13.8,91.6-21.5,165.6,5.3
	c24.4,8.8,46.9,21,67.8,36.4c5.1,3.7,7.5,6.1,2.1,11.9c-11.8,12.7-23,25.9-34.3,39.1c-4.8,5.6-8.6,4.7-14.2,0.4
	c-22.9-17.5-48.5-29.2-77.2-33.2c-2.6,0.9-5.1,1.7-7.4-0.7c-37.6-5.4-71.5,4.5-101,27.2c-69,52.9-70,169.1-13.1,228.5
	c23.3,24.2,53.8,34.9,87,37.9c8.8-1.6,17.6-1.5,26.5,0c28.5-1.7,54.1-12.2,78.9-25.4c5.2-2.8,6.8-7.7,6.7-13.3
	c-0.2-10.7-1.1-21.4-0.2-31.9c1.2-13-4.2-16.8-16-14C142.7,268.9,114.3,270.6,85.9,267.1z"/>
<path class="st4" d="M85.9,219.9c-0.7-0.4-1.4-0.6-2.2-0.5c-3.1-10.6-2.9-21.2-0.1-31.9l-0.4,0.4c2.1-2.3,4.9-1.7,7.5-1.7
	c52.8,0,105.7,0,158.5,0c2.6,0,5.4-0.6,7.5,1.7l-0.5-0.4c2.9,10.6,3.1,21.2-0.1,31.8c-0.8-0.1-1.5,0-2.1,0.5
	c-22,2.1-44.1,0.9-66.1,0.8C153.9,220.6,119.9,222,85.9,219.9z"/>
<path class="st5" d="M256.7,188c-57.8,0-115.6,0-173.5,0c3.1-4.7,8-3.1,12.2-3.1c49.7-0.1,99.4-0.1,149.1,0
	C248.7,184.9,253.6,183.3,256.7,188z"/>
<path class="st6" d="M85.9,219.9c56,0,112,0,168,0c-2.8,3.1-6.5,2.3-10,2.3c-49.3,0-98.7,0-148,0C92.5,222.2,88.8,222.9,85.9,219.9z
	"/>
<path class="st7" d="M256.6,352.9c-0.1-39.1-0.2-78.2-0.3-117.2c2.1,1.3,3,3.2,3,5.5c0,36.8,0,73.7,0,110.5c0,0.4-0.2,1-0.5,1.1
	C258.2,352.9,257.4,352.9,256.6,352.9z"/>
<path class="st8" d="M85.9,267.1c28.4,0.3,56.8,0.6,85.2,0.9c-18.5,5-37.4,1.7-56.1,2C105.4,270.1,95.1,273.5,85.9,267.1z"/>
<path class="st9" d="M83.6,187.5c0,10.6,0.1,21.3,0.1,31.9C78.5,208.8,78.6,198.2,83.6,187.5z"/>
<path class="st10" d="M256.1,219.4c0-10.6,0.1-21.2,0.1-31.8C261.3,198.2,261.5,208.8,256.1,219.4z"/>
<path class="st11" d="M83.4,235.6c0,9.7-0.1,19.4-0.1,29.1C78.4,255,78.9,245.3,83.4,235.6z"/>
<path class="st12" d="M101.7,352.7c-8.8,1.3-17.6,1.4-26.5,0C84.1,348.9,92.9,349,101.7,352.7z"/>
<path class="st13" d="M102.3,59.1c2.5,0.2,4.9,0.5,7.4,0.7c-4.2,3.5-8.7,2.4-16.6,0.7C98.3,59.7,100.3,59.4,102.3,59.1z"/>
</svg>
